# This file uses meters as units for non-parametric coordinates.

v 0.000000 -0.000012 250.000000
v -140.000977 -0.000012 250.000000
v 150.000000 0.000001 250.000000
v 250.000000 0.000012 250.000000
v -250.000000 -0.000015 250.000000
v -250.000000 -0.000000 79.999878
v 250.000000 -0.000031 79.999878
v -250.000000 -0.000015 -79.999878
v 250.000000 0.000011 -9.999847
v 250.000000 -0.000026 -79.999878
v -250.000000 0.000012 -250.000000
v -150.000000 -0.000024 -250.000000
v 250.000000 0.000002 -250.000000
v 140.000977 0.000001 -250.000000
v 0.000000 -0.000012 -250.000000
v -250.000000 -15.447553 250.000000
v -140.000977 -24.065947 250.000000
v 0.000000 -15.447552 250.000000
v 150.000000 -24.065928 250.000000
v 250.000000 -15.447521 250.000000
v -250.000000 -15.447541 79.999878
v 250.000000 -15.447563 79.999878
v 250.000000 -24.065926 -9.999847
v -250.000000 -24.065947 -79.999878
v 250.000000 -24.065968 -79.999878
v -250.000000 -15.447521 -250.000000
v 250.000000 -15.447532 -250.000000
v 140.000977 -15.447532 -250.000000
v -150.000000 -15.447562 -250.000000
v 0.000000 -24.065947 -250.000000
v -250.000000 -43.241459 250.000000
v -140.000977 -43.241421 250.000000
v 0.000000 -43.241421 250.000000
v 150.000000 -43.241417 250.000000
v 250.000000 -43.241417 250.000000
v -250.000000 -43.241417 79.999878
v 250.000000 -43.241459 79.999878
v 250.000000 -43.241417 -9.999847
v -250.000000 -43.241459 -79.999878
v 250.000000 -43.241459 -79.999878
v -250.000000 -43.241417 -250.000000
v 250.000000 -43.241417 -250.000000
v 140.000977 -43.241417 -250.000000
v -150.000000 -43.241459 -250.000000
v 0.000000 -43.241421 -250.000000
v 16.666668 -0.000007 -0.666657
vt 0.894432 0.322375
vt 0.894432 0.322375
vt 0.894432 0.322375
vt 0.894432 0.322375
vt 0.894432 0.322375
vt 0.894432 0.322375
vt 0.894432 0.322375
vt 0.894432 0.322375
vt 0.894432 0.322375
vt 0.894432 0.322375
vt 0.894432 0.322375
vt 0.894432 0.322375
vt 0.894432 0.322375
vt 0.894432 0.322375
vt 0.894432 0.322375
vt 0.894432 0.322375
vt 0.894432 0.322375
vt 0.894432 0.322375
vt 0.894432 0.322375
vt 0.894432 0.322375
vt 0.894432 0.322375
vt 0.894432 0.322375
vt 0.894432 0.322375
vt 0.894432 0.322375
vt 0.894432 0.322375
vt 0.894432 0.322375
vt 0.894432 0.322375
vt 0.894432 0.322375
vt 0.894432 0.322375
vt 0.894432 0.322375
vt 0.990533 0.896856
vt 0.990533 0.896856
vt 0.990533 0.924336
vt 0.990533 0.924336
vt 0.990533 0.896856
vt 0.990533 0.924336
vt 0.990533 0.896856
vt 0.990533 0.924336
vt 0.990533 0.896856
vt 0.990533 0.924336
vt 0.990291 0.896856
vt 0.990291 0.924336
vt 0.990291 0.896856
vt 0.990291 0.924336
vt 0.990192 0.896856
vt 0.990192 0.924336
vt 0.990064 0.896856
vt 0.990064 0.924336
vt 0.990064 0.896856
vt 0.990064 0.924336
vt 0.989822 0.896856
vt 0.989822 0.924336
vt 0.989822 0.896856
vt 0.989822 0.924336
vt 0.989822 0.896856
vt 0.989822 0.924336
vt 0.989822 0.896856
vt 0.989822 0.896856
vt 0.989822 0.924336
vt 0.989822 0.924336
vt 0.896042 0.322951
vt 0.896042 0.322951
vt 0.896042 0.322951
vt 0.896041 0.322951
vt 0.896042 0.322951
vt 0.896042 0.322951
vt 0.896042 0.322951
vt 0.896042 0.322951
vt 0.896042 0.322951
vt 0.896042 0.322951
vt 0.896042 0.322951
vt 0.896042 0.322951
vt 0.896042 0.322951
vt 0.896042 0.322951
vt 0.896041 0.322951
vt 0.896042 0.322951
vn -0.000000 0.000000 1.000000
vn -0.000000 0.000000 1.000000
vn -0.000000 0.000000 1.000000
vn -0.000000 0.000000 1.000000
vn 0.000000 0.000000 1.000000
vn 0.000000 0.000000 1.000000
vn 0.000000 0.000000 1.000000
vn 0.000000 0.000000 1.000000
vn 0.000000 0.000000 1.000000
vn 0.000000 0.000000 1.000000
vn 0.000000 0.000000 1.000000
vn 0.000000 0.000000 1.000000
vn 0.000000 0.000000 1.000000
vn 0.000000 0.000000 1.000000
vn 0.000000 0.000000 1.000000
vn 0.000000 0.000000 1.000000
vn -1.000000 0.000000 0.000000
vn -1.000000 0.000000 0.000000
vn -1.000000 0.000000 0.000000
vn -1.000000 0.000000 0.000000
vn 1.000000 0.000000 0.000000
vn 1.000000 0.000000 0.000000
vn 1.000000 0.000000 0.000000
vn 1.000000 0.000000 0.000000
vn 1.000000 0.000000 0.000000
vn 1.000000 0.000000 0.000000
vn 1.000000 0.000000 0.000000
vn 1.000000 0.000000 0.000000
vn -1.000000 0.000000 0.000000
vn -1.000000 0.000000 0.000000
vn -1.000000 0.000000 0.000000
vn -1.000000 0.000000 0.000000
vn 1.000000 0.000000 0.000000
vn 1.000000 0.000000 0.000000
vn 1.000000 0.000000 0.000000
vn 1.000000 0.000000 0.000000
vn -1.000000 0.000000 0.000000
vn -1.000000 0.000000 0.000000
vn -1.000000 0.000000 0.000000
vn -1.000000 0.000000 0.000000
vn 1.000000 0.000000 0.000000
vn 1.000000 0.000000 0.000000
vn 1.000000 0.000000 0.000000
vn 1.000000 0.000000 0.000000
vn 0.000000 0.000000 -1.000000
vn 0.000000 0.000000 -1.000000
vn 0.000000 0.000000 -1.000000
vn 0.000000 0.000000 -1.000000
vn -0.000000 0.000000 -1.000000
vn -0.000000 0.000000 -1.000000
vn -0.000000 0.000000 -1.000000
vn -0.000000 0.000000 -1.000000
vn 0.000000 0.000000 -1.000000
vn 0.000000 0.000000 -1.000000
vn 0.000000 0.000000 -1.000000
vn 0.000000 0.000000 -1.000000
vn 0.000000 0.000000 -1.000000
vn 0.000000 0.000000 -1.000000
vn 0.000000 0.000000 -1.000000
vn 0.000000 0.000000 -1.000000
vn -0.000000 0.000000 1.000000
vn -0.000000 0.000000 1.000000
vn -0.000000 0.000000 1.000000
vn -0.000000 0.000000 1.000000
vn 0.000000 0.000000 1.000000
vn 0.000000 0.000000 1.000000
vn 0.000000 0.000000 1.000000
vn 0.000000 0.000000 1.000000
vn -0.000000 0.000000 1.000000
vn -0.000000 0.000000 1.000000
vn -0.000000 0.000000 1.000000
vn -0.000000 0.000000 1.000000
vn 0.000000 0.000000 1.000000
vn 0.000000 0.000000 1.000000
vn 0.000000 0.000000 1.000000
vn 0.000000 0.000000 1.000000
vn -1.000000 0.000000 0.000000
vn -1.000000 0.000000 0.000000
vn -1.000000 0.000000 0.000000
vn -1.000000 0.000000 0.000000
vn 1.000000 0.000000 0.000000
vn 1.000000 0.000000 0.000000
vn 1.000000 0.000000 0.000000
vn 1.000000 0.000000 0.000000
vn 1.000000 0.000000 0.000000
vn 1.000000 0.000000 0.000000
vn 1.000000 0.000000 0.000000
vn 1.000000 0.000000 0.000000
vn -1.000000 0.000000 0.000000
vn -1.000000 0.000000 0.000000
vn -1.000000 0.000000 0.000000
vn -1.000000 0.000000 0.000000
vn 1.000000 0.000000 0.000000
vn 1.000000 0.000000 0.000000
vn 1.000000 0.000000 0.000000
vn 1.000000 0.000000 0.000000
vn -1.000000 0.000000 0.000000
vn -1.000000 0.000000 0.000000
vn -1.000000 0.000000 0.000000
vn -1.000000 0.000000 0.000000
vn 1.000000 0.000000 0.000000
vn 1.000000 0.000000 0.000000
vn 1.000000 0.000000 0.000000
vn 1.000000 0.000000 0.000000
vn 0.000000 0.000000 -1.000000
vn 0.000000 0.000000 -1.000000
vn 0.000000 0.000000 -1.000000
vn 0.000000 0.000000 -1.000000
vn -0.000000 0.000000 -1.000000
vn -0.000000 0.000000 -1.000000
vn -0.000000 0.000000 -1.000000
vn -0.000000 0.000000 -1.000000
vn 0.000000 0.000000 -1.000000
vn 0.000000 0.000000 -1.000000
vn 0.000000 0.000000 -1.000000
vn 0.000000 0.000000 -1.000000
vn 0.000000 0.000000 -1.000000
vn 0.000000 0.000000 -1.000000
vn 0.000000 0.000000 -1.000000
vn 0.000000 0.000000 -1.000000
vn -0.000000 1.000000 0.000000
vn -0.000000 1.000000 0.000000
vn -0.000000 1.000000 0.000000
vn 0.000000 1.000000 0.000000
vn 0.000000 1.000000 0.000000
vn 0.000000 1.000000 0.000000
vn -0.000000 1.000000 0.000000
vn -0.000000 1.000000 0.000000
vn -0.000000 1.000000 0.000000
vn -0.000000 1.000000 0.000000
vn -0.000000 1.000000 0.000000
vn -0.000000 1.000000 0.000000
vn 0.000000 1.000000 0.000000
vn 0.000000 1.000000 0.000000
vn 0.000000 1.000000 0.000000
vn 0.000000 1.000000 -0.000000
vn 0.000000 1.000000 -0.000000
vn 0.000000 1.000000 -0.000000
vn -0.000000 1.000000 0.000000
vn -0.000000 1.000000 0.000000
vn -0.000000 1.000000 0.000000
vn -0.000000 1.000000 -0.000000
vn -0.000000 1.000000 -0.000000
vn -0.000000 1.000000 -0.000000
vn -0.000000 1.000000 -0.000001
vn -0.000000 1.000000 -0.000001
vn -0.000000 1.000000 -0.000001
vn -0.000000 1.000000 0.000000
vn -0.000000 1.000000 0.000000
vn -0.000000 1.000000 0.000000
vn 0.000000 1.000000 0.000000
vn 0.000000 1.000000 0.000000
vn 0.000000 1.000000 0.000000
vn -0.000000 1.000000 0.000000
vn -0.000000 1.000000 0.000000
vn -0.000000 1.000000 0.000000
vn -0.000000 1.000000 -0.000000
vn -0.000000 1.000000 -0.000000
vn -0.000000 1.000000 -0.000000
vn -0.000000 1.000000 -0.000000
vn -0.000000 1.000000 -0.000000
vn -0.000000 1.000000 -0.000000
vn 0.000000 1.000000 -0.000000
vn 0.000000 1.000000 -0.000000
vn 0.000000 1.000000 -0.000000
s off
f 2/1/1 5/2/2 16/3/3 17/4/4
f 1/5/5 2/1/6 17/4/7 18/6/8
f 3/7/9 1/5/10 18/6/11 19/8/12
f 4/9/13 3/7/14 19/8/15 20/10/16
f 5/2/17 6/11/18 21/12/19 16/3/20
f 7/13/21 4/9/22 20/10/23 22/14/24
f 9/15/25 7/13/26 22/14/27 23/16/28
f 6/11/29 8/17/30 24/18/31 21/12/32
f 10/19/33 9/15/34 23/16/35 25/20/36
f 8/17/37 11/21/38 26/22/39 24/18/40
f 13/23/41 10/19/42 25/20/43 27/24/44
f 14/25/45 13/23/46 27/24/47 28/26/48
f 12/27/49 15/28/50 30/29/51 29/30/52
f 15/28/53 14/25/54 28/26/55 30/29/56
f 11/21/57 12/27/58 29/30/59 26/22/60
f 17/60/61 16/59/62 31/58/63 32/57/64
f 18/56/65 17/60/66 32/57/67 33/55/68
f 19/54/69 18/56/70 33/55/71 34/53/72
f 20/52/73 19/54/74 34/53/75 35/51/76
f 16/59/77 21/50/78 36/49/79 31/58/80
f 22/48/81 20/52/82 35/51/83 37/47/84
f 23/46/85 22/48/86 37/47/87 38/45/88
f 21/50/89 24/44/90 39/43/91 36/49/92
f 25/42/93 23/46/94 38/45/95 40/41/96
f 24/44/97 26/40/98 41/39/99 39/43/100
f 27/38/101 25/42/102 40/41/103 42/37/104
f 28/36/105 27/38/106 42/37/107 43/35/108
f 29/34/109 30/33/110 45/32/111 44/31/112
f 30/33/113 28/36/114 43/35/115 45/32/116
f 26/40/117 29/34/118 44/31/119 41/39/120
f 5/61/121 2/62/122 46/63/123
f 2/62/124 1/64/125 46/63/126
f 1/64/127 3/65/128 46/63/129
f 3/65/130 4/66/131 46/63/132
f 6/67/133 5/61/134 46/63/135
f 4/66/136 7/68/137 46/63/138
f 7/68/139 9/69/140 46/63/141
f 8/70/142 6/67/143 46/63/144
f 9/69/145 10/71/146 46/63/147
f 11/72/148 8/70/149 46/63/150
f 10/71/151 13/73/152 46/63/153
f 13/73/154 14/74/155 46/63/156
f 15/75/157 12/76/158 46/63/159
f 14/74/160 15/75/161 46/63/162
f 12/76/163 11/72/164 46/63/165
